<?xml version="1.0" encoding="UTF-8"?>
<svg version="1.1" xmlns="http://www.w3.org/2000/svg" width="3112" height="300">
<path d="M0 0 C1026.96 0 2053.92 0 3112 0 C3112 99 3112 198 3112 300 C2085.04 300 1058.08 300 0 300 C0 201 0 102 0 0 Z " fill="#FEFEFE" transform="translate(0,0)"/>
<path d="M0 0 C847.44 0 1694.88 0 2568 0 C2568 0.33 2568 0.66 2568 1 C2546.34032406 4.8508056 2524.66695556 8.57699759 2502.94577026 12.06530762 C2490.75521047 14.02563986 2478.60850158 16.12463116 2466.47875977 18.43579102 C2459.96476372 19.66822474 2453.48902761 20.65912285 2446.90600586 21.44848633 C2442.51665254 22.06824688 2438.20140046 22.91162764 2433.85546875 23.77734375 C2420.36055377 26.40280244 2406.776978 28.43343389 2393.1875 30.5 C2388.22233083 31.25830264 2383.25752183 32.01892464 2378.29296875 32.78125 C2376.47526222 33.06006516 2376.47526222 33.06006516 2374.62083435 33.34451294 C2365.90076465 34.68902436 2357.19697655 36.11713579 2348.49685669 37.58456421 C2338.02390374 39.34560678 2327.52574129 40.93215989 2317.02319336 42.50537109 C2314.53718391 42.87849945 2312.05177528 43.25544531 2309.56640625 43.6328125 C2308.83506973 43.74118439 2308.10373322 43.84955627 2307.35023499 43.96121216 C2302.85661064 44.64589051 2298.45077379 45.54586799 2294.01994324 46.55813599 C2291.65538386 47.07538502 2289.30222382 47.43077241 2286.8984375 47.7109375 C2286.00874268 47.81913818 2285.11904785 47.92733887 2284.20239258 48.03881836 C2282.80283325 48.20522827 2282.80283325 48.20522827 2281.375 48.375 C2273.47683542 49.35742205 2265.64455013 50.52254073 2257.8125 51.9375 C2244.59218196 54.3170203 2231.30325089 56.15215852 2218 58 C2205.84386101 59.70241975 2193.69948928 61.47859284 2181.5625 63.3125 C2180.51993042 63.46995193 2180.51993042 63.46995193 2179.45629883 63.63058472 C2171.21998322 64.87676995 2162.9894405 66.15421017 2154.765625 67.48046875 C2134.74998871 70.70336186 2114.71833942 73.55530702 2094.61048889 76.13870239 C2083.05561312 77.62972977 2071.52652618 79.30514566 2060 81 C2059.10796875 81.13116211 2058.2159375 81.26232422 2057.296875 81.39746094 C2049.5529719 82.54063682 2041.81380886 83.71095754 2034.08203125 84.93359375 C2018.30469912 87.41754916 2002.49678902 89.54215668 1986.65136719 91.53857422 C1963.71084785 94.41417319 1963.71084785 94.41417319 1940.84765625 97.8359375 C1926.00788324 100.22627775 1911.14810868 102.09340777 1896.21963501 103.82192993 C1885.75938662 105.03603199 1875.33340326 106.3070635 1864.9375 108 C1852.32719095 110.04947462 1839.66282284 111.56971362 1826.97827148 113.07421875 C1816.00094517 114.37787816 1805.03544522 115.75892349 1794.07279205 117.18099213 C1779.40834919 119.08294793 1764.73632471 120.92184665 1750.0625 122.75 C1747.29880998 123.09474397 1744.53514634 123.43969916 1741.77148438 123.78466797 C1736.76746508 124.40923151 1731.76342132 125.03359835 1726.7593441 125.65769768 C1714.19718732 127.2244645 1701.63549314 128.79492651 1689.07383823 130.36571121 C1684.36414692 130.95458617 1679.65437857 131.54284234 1674.94458008 132.13085938 C1662.82144944 133.64466814 1650.69885726 135.16240831 1638.578125 136.6953125 C1617.16413371 139.40033316 1595.7454674 141.98243312 1574.28767395 144.31486511 C1566.79391604 145.12953178 1559.30233408 145.96251575 1551.8125 146.8125 C1551.12234802 146.89067963 1550.43219604 146.96885925 1549.72113037 147.04940796 C1539.74398631 148.18360931 1529.7768521 149.39138013 1519.8125 150.6328125 C1494.98568508 153.7241627 1470.16445879 156.69663701 1445.27368164 159.22631836 C1443.32697645 159.42422567 1441.38028042 159.62222308 1439.43359375 159.8203125 C1438.48152542 159.9171785 1437.52945709 160.01404449 1436.54853821 160.11384583 C1426.27364153 161.16585334 1416.01135633 162.32413758 1405.75 163.5 C1404.84708221 163.60330627 1403.94416443 163.70661255 1403.0138855 163.81304932 C1396.67554153 164.53872353 1390.33770514 165.26877027 1384 166 C1350.31452953 169.88655149 1316.61142889 173.56742791 1282.8671875 176.91015625 C1281.83550949 177.01248566 1281.83550949 177.01248566 1280.7829895 177.11688232 C1277.73213235 177.41898041 1274.68104551 177.71822646 1271.62939453 178.01220703 C1265.79922319 178.58211364 1259.98922632 179.24564799 1254.1796875 179.99609375 C1246.87148275 180.93435574 1239.55491069 181.60543455 1232.21063232 182.2038269 C1219.9008698 183.21412011 1207.63530567 184.44473113 1195.375 185.9375 C1176.27875872 188.25601593 1157.14684434 190.15212944 1138 192 C1137.14645935 192.0825 1136.2929187 192.165 1135.41351318 192.25 C1118.54970739 193.8791457 1101.68310189 195.47793182 1084.8125 197.03515625 C1083.87884109 197.12147308 1082.94518219 197.20778992 1081.98323059 197.29672241 C1077.55632135 197.70589678 1073.12928942 198.11358493 1068.7019043 198.51757812 C1058.84577835 199.42255169 1049.00010442 200.40745071 1039.15625 201.4375 C1024.39888119 202.97939433 1009.62983143 204.3783689 994.85559845 205.74794388 C989.20552738 206.27215041 983.55575028 206.79952503 977.90592957 207.32642174 C976.50093654 207.45742548 975.09593779 207.58836783 973.69093323 207.71924782 C965.30958259 208.50005231 956.9291468 209.28928593 948.55078125 210.1015625 C927.9449763 212.09764583 907.32972162 213.93369935 886.70178223 215.68725586 C867.59653122 217.31358365 848.50488564 219.05679499 829.41658783 220.86871719 C805.32545952 223.15539151 781.22757177 225.30557071 757.10696411 227.25819397 C748.2941503 227.9725346 739.48296837 228.70621793 730.671875 229.44140625 C729.9001017 229.50579832 729.1283284 229.57019039 728.33316803 229.63653374 C724.41086292 229.96383183 720.48857041 230.29128071 716.56628418 230.61880493 C710.27595875 231.1440151 703.98553679 231.66806595 697.69511414 232.19211006 C695.67161768 232.36069824 693.64812508 232.52933264 691.62463379 232.69798279 C685.12996469 233.23928265 678.63528174 233.78041522 672.14056015 234.32108498 C668.14057518 234.65408167 664.14059818 234.98717411 660.140625 235.3203125 C659.3321537 235.38764462 658.5236824 235.45497673 657.69071198 235.52434921 C645.52933268 236.53737408 633.36839595 237.55560487 621.20764923 238.57619286 C613.05519087 239.26021984 604.9026289 239.9430088 596.75 240.625 C595.41218727 240.7369124 595.41218727 240.7369124 594.04734802 240.85108566 C569.47893191 242.90541029 544.90836597 244.91247598 520.32324219 246.75830078 C518.47070152 246.89743954 516.61816241 247.03659911 514.765625 247.17578125 C513.88518524 247.24180542 513.00474548 247.30782959 512.09762573 247.37585449 C505.24156363 247.89463793 498.39027544 248.46398219 491.5390625 249.04296875 C482.73838345 249.78555526 473.93978432 250.44609292 465.125 251 C449.03403497 252.04728052 432.95902922 253.25458435 416.88937378 254.58848572 C412.17653487 254.97915896 407.46333923 255.36541372 402.75 255.75 C401.74998962 255.83164398 400.74997925 255.91328796 399.71966553 255.99740601 C383.79154317 257.28964533 367.85578617 258.44892125 351.9140625 259.55859375 C350.4670546 259.65932001 350.4670546 259.65932001 348.99081421 259.76208115 C339.19735396 260.44296741 329.40350675 261.11807886 319.60916328 261.78613949 C315.89881398 262.03950221 312.1885736 262.29443875 308.47834396 262.5495472 C305.89938357 262.72612469 303.32025967 262.90015452 300.74111938 263.07408142 C299.16382996 263.18231688 297.5865488 263.29067298 296.00927734 263.39916992 C294.96384325 263.4685206 294.96384325 263.4685206 293.89728928 263.53927231 C290.53897423 263.77289728 287.20447485 264.0809362 283.8664856 264.51048279 C280.61203217 264.92251354 277.39906975 265.22613172 274.12695312 265.43310547 C273.03378281 265.50355072 271.94061249 265.57399597 270.8143158 265.64657593 C269.06544823 265.75577866 269.06544823 265.75577866 267.28125 265.8671875 C264.73575819 266.03059471 262.19026667 266.19400634 259.64477539 266.35742188 C258.30315775 266.44272619 256.96153372 266.52792992 255.61990356 266.61303711 C248.65110795 267.05548303 241.68291637 267.50726364 234.71484375 267.9609375 C234.02355314 268.00590614 233.33226254 268.05087479 232.62002373 268.09720612 C221.42829442 268.82660942 210.24395206 269.62791793 199.0625 270.5 C179.152632 272.04989737 159.22363221 273.3032349 139.29321289 274.5546875 C127.78236746 275.28087735 116.27829381 276.03634654 104.78125 276.95703125 C87.87536962 278.30027256 70.94487943 279.27546686 54.01660156 280.28710938 C49.26937343 280.57085672 44.52241016 280.85880319 39.77550316 281.1478672 C36.07634693 281.37263866 32.37705679 281.5951399 28.67772293 281.81696701 C26.92590638 281.92229932 25.17413261 282.02834575 23.42240524 282.13515091 C20.98665161 282.28334221 18.550732 282.42843782 16.11474609 282.57275391 C15.40824417 282.61636551 14.70174225 282.65997711 13.97383118 282.70491028 C9.29111773 282.97801445 4.70871553 283 0 283 C0 189.61 0 96.22 0 0 Z " fill="#FAA85C" transform="translate(0,0)"/>
<path d="M0 0 C0 99 0 198 0 300 C-381.15 300 -762.3 300 -1155 300 C-1155 299.67 -1155 299.34 -1155 299 C-1153.90574707 298.76925781 -1152.81149414 298.53851563 -1151.68408203 298.30078125 C-1123.97679252 292.44992888 -1123.97679252 292.44992888 -1096.375 286.125 C-1095.71988434 285.96899323 -1095.06476868 285.81298645 -1094.38980103 285.6522522 C-1093.39404556 285.41506973 -1093.39404556 285.41506973 -1092.37817383 285.1730957 C-1090.99301594 284.84320023 -1089.6078431 284.51336756 -1088.22265625 284.18359375 C-1087.51877274 284.01598038 -1086.81488922 283.848367 -1086.0896759 283.67567444 C-1076.41070003 281.37691684 -1066.71504361 279.14992733 -1057.019104 276.92401123 C-1054.91209201 276.44006061 -1052.80527418 275.95526374 -1050.69866943 275.46954346 C-1040.24049011 273.05863472 -1029.78755622 270.70507564 -1019.25366211 268.64672852 C-1014.27046293 267.65622093 -1009.32288393 266.52742685 -1004.375 265.375 C-1003.29798828 265.12556641 -1002.22097656 264.87613281 -1001.11132812 264.61914062 C-990.41776311 262.12656566 -979.75314004 259.51642301 -969.08679199 256.91040039 C-952.64176786 252.8939698 -936.16478028 249.038079 -919.640625 245.359375 C-917.05193455 244.78190421 -914.46333738 244.2040481 -911.875 243.625 C-911.22949188 243.48061493 -910.58398376 243.33622986 -909.91891479 243.18746948 C-899.12280044 240.76590327 -888.38684945 238.13735356 -877.66052246 235.42492676 C-865.54239152 232.36147382 -853.38637055 229.49439419 -841.19726562 226.7265625 C-835.58774583 225.4518274 -829.98126178 224.16397431 -824.375 222.875 C-823.36904785 222.64538574 -822.3630957 222.41577148 -821.32666016 222.17919922 C-813.7647452 220.44211933 -806.23690077 218.57943191 -798.71356201 216.68353271 C-789.47773037 214.35707286 -780.23940861 212.04048451 -771.0009861 209.72433662 C-767.47575917 208.84044696 -763.95075974 207.95567077 -760.42626953 207.06884766 C-744.07471976 202.95523384 -727.71120824 198.94654781 -711.2668457 195.21606445 C-705.8578651 193.98242521 -700.50691654 192.59543068 -695.15625 191.12890625 C-689.30742196 189.52650826 -683.43285064 188.02116833 -677.5625 186.5 C-676.46687744 186.21519775 -675.37125488 185.93039551 -674.24243164 185.63696289 C-666.28737881 183.57480327 -658.31854659 181.57028584 -650.34420776 179.58428955 C-645.86944403 178.46896277 -641.39576419 177.3492973 -636.921875 176.23046875 C-634.92985319 175.73249153 -632.9378284 175.23452624 -630.94580078 174.73657227 C-626.73573904 173.68407776 -622.52579221 172.63112506 -618.31591797 171.57788086 C-600.17639458 167.04028784 -600.17639458 167.04028784 -591.2734375 164.8359375 C-580.86118399 162.25459054 -570.47610628 159.63623699 -560.15795898 156.69921875 C-555.36254539 155.34432233 -550.54658572 154.16537156 -545.6875 153.0625 C-539.38840921 151.63092171 -533.1981207 149.94298363 -527 148.125 C-519.21569542 145.84506912 -511.39744775 143.84896961 -503.5 142 C-495.02957624 140.011958 -486.65747012 137.83298649 -478.30688477 135.39282227 C-470.54598795 133.1323598 -462.7482685 131.01771228 -454.9375 128.9375 C-454.28913177 128.7646347 -453.64076355 128.59176941 -452.9727478 128.41366577 C-445.20767019 126.34626827 -437.43120692 124.34315409 -429.625 122.4375 C-421.31222443 120.40698397 -413.1226388 118.02087223 -404.92041016 115.58569336 C-397.84957483 113.50026742 -390.75099639 111.64929506 -383.58691406 109.91625977 C-375.86601646 108.0230217 -368.26103043 105.77494118 -360.640625 103.515625 C-355.11632512 101.88538702 -349.5985339 100.35317261 -344 99 C-336.44049088 97.16857253 -329.00486346 94.98256115 -321.546875 92.77734375 C-314.05913409 90.57396862 -306.54309634 88.50502695 -299 86.5 C-289.54198688 83.98368666 -280.1377875 81.32268519 -270.7512207 78.55249023 C-264.25076212 76.63964642 -257.73151813 74.82007031 -251.1875 73.0625 C-241.72938117 70.51724054 -232.34104625 67.761295 -222.95556641 64.96118164 C-216.16814485 62.93673587 -209.37484274 60.93896921 -202.5625 59 C-201.73379395 58.76394043 -200.90508789 58.52788086 -200.05126953 58.28466797 C-196.30012432 57.21790706 -192.54796995 56.15477396 -188.79492188 55.09472656 C-173.73906899 50.84056274 -158.74691033 46.43060382 -143.8046875 41.79296875 C-138.56043228 40.16686266 -133.30238662 38.60140262 -128.02929688 37.07128906 C-123.14094668 35.64571405 -118.26799946 34.17193552 -113.3984375 32.68359375 C-110.53656419 31.80954875 -107.6745982 30.93580832 -104.8125 30.0625 C-104.09141052 29.842453 -103.37032104 29.62240601 -102.62738037 29.39569092 C-93.80673963 26.70835465 -84.97596326 24.11596403 -76.0625 21.75 C-68.92908517 19.85597573 -61.9417846 17.71813373 -54.96289062 15.31933594 C-47.70896267 12.84684325 -40.3613618 10.73186361 -32.99536133 8.62109375 C-25.6027018 6.49483649 -18.26719709 4.22665727 -10.97485352 1.77734375 C-7.01605192 0.48278673 -4.24996171 0 0 0 Z " fill="#FEFEFE" transform="translate(3112,0)"/>
<path d="M0 0 C5.61313599 0.0510824 11.22633306 0.05479204 16.83966565 0.06420326 C27.39973692 0.08876128 37.95912079 0.15398018 48.51889354 0.23499918 C60.57025649 0.32539316 72.62165777 0.36864571 84.67327702 0.40856266 C109.39992838 0.49148518 134.12597594 0.63158001 158.85210156 0.8111515 C156.30842567 2.50693543 154.82059132 3.25127912 151.99272656 4.07287025 C151.2182417 4.30111488 150.44375684 4.52935951 149.64580274 4.76452065 C148.80638135 5.00678383 147.96695996 5.24904701 147.10210156 5.4986515 C145.29076192 6.03202459 143.47956981 6.56589892 141.66850781 7.100214 C140.71862988 7.37897377 139.76875196 7.65773354 138.79008985 7.94494057 C133.86585703 9.39675858 128.95195805 10.8822116 124.03960156 12.3736515 C123.05878613 12.67102211 122.07797071 12.96839272 121.0674336 13.27477455 C115.83793035 14.869522 110.64704246 16.53343789 105.47710156 18.3111515 C97.84477521 20.9034227 90.09125796 23.01124298 82.32231641 25.15270424 C75.87290143 26.93915054 69.47167368 28.82109091 63.10210156 30.8736515 C54.91721451 33.50894699 46.67661678 35.8974789 38.40288281 38.23693275 C32.37739228 39.94070709 26.36379923 41.6844079 20.35210156 43.4361515 C19.39795362 43.71321938 18.44380567 43.99028725 17.46074414 44.27575111 C12.55838472 45.70527082 7.67026053 47.17149852 2.79350781 48.6861515 C-4.85037987 51.04831333 -12.53637042 53.25883526 -20.22468066 55.47094154 C-36.58767661 60.17661012 -36.58767661 60.17661012 -52.89789844 65.0611515 C-61.30217011 67.62425348 -69.78208027 69.87519351 -78.27411914 72.12755775 C-86.68306648 74.37474965 -95.01494918 76.82612609 -103.32490039 79.41442299 C-109.5645118 81.35536529 -115.83380016 83.12884285 -122.14789844 84.8111515 C-123.59193042 85.19642006 -123.59193042 85.19642006 -125.06513476 85.58947182 C-127.08845248 86.12875982 -129.11180946 86.66790049 -131.13520312 87.20690346 C-140.59258602 89.73142152 -150.01615184 92.33104481 -159.39789844 95.1236515 C-171.61667217 98.75046231 -183.93952673 101.96586037 -196.273875 105.17174721 C-206.22873182 107.76143705 -216.15230935 110.44564134 -226.05601001 113.22467995 C-232.74930968 115.10118054 -239.44813589 116.95788252 -246.14789844 118.8111515 C-247.00931445 119.0497892 -247.87073047 119.2884269 -248.75825 119.53429604 C-258.61158358 122.25949731 -268.47167777 124.92571912 -278.39789844 127.3736515 C-289.47943494 130.10863222 -300.45783152 133.17138711 -311.42524219 136.33068275 C-326.49527627 140.64321323 -341.65841479 144.502532 -356.87494922 148.25914955 C-366.66195579 150.67644541 -376.41550172 153.18095262 -386.14789844 155.8111515 C-396.19803648 158.50558673 -406.2583006 161.15683687 -416.33539844 163.7486515 C-417.04813922 163.93213142 -417.76088 164.11561134 -418.49521899 164.30465126 C-437.78563236 169.26573233 -457.11462768 174.07400965 -476.44086719 178.89318275 C-477.46867801 179.14955513 -478.49648883 179.40592751 -479.55544543 179.67006874 C-483.97223793 180.77147406 -488.38930716 181.87166668 -492.80805469 182.96520424 C-500.82745923 184.95299485 -508.80715146 187.05621522 -516.77289844 189.2486515 C-525.88469898 191.73108848 -535.01353483 194.02250709 -544.24018359 196.03746986 C-560.28715687 199.54884608 -576.16670367 203.85334948 -592.07099414 207.95397377 C-612.70352437 213.27140771 -633.42834615 218.14662147 -654.20551562 222.8633976 C-663.98669752 225.08603681 -673.70810299 227.45185663 -683.39860034 230.04233742 C-690.19147449 231.84854362 -697.02353199 233.40773254 -703.89789844 234.8736515 C-710.83972943 236.35762376 -717.72464989 237.93522833 -724.57758594 239.79162025 C-731.85076965 241.76151859 -739.16463118 243.44307787 -746.52289844 245.0611515 C-757.61535443 247.52617972 -768.67252225 250.11251929 -779.71039844 252.8111515 C-793.93837476 256.28719924 -808.19082752 259.64631106 -822.45942187 262.95226479 C-826.15190983 263.81208559 -829.84161394 264.6829985 -833.53071094 265.55724525 C-847.25697773 268.80221063 -861.00496124 271.86730303 -874.81074023 274.74965858 C-884.40269065 276.75635737 -893.94240601 278.91095696 -903.46039844 281.2486515 C-914.16329407 283.87622899 -924.88874123 286.36442741 -935.64789844 288.7486515 C-936.30255084 288.8940638 -936.95720325 289.03947609 -937.6316936 289.18929482 C-938.27166278 289.33126289 -938.91163196 289.47323097 -939.57099414 289.61950111 C-940.19701301 289.7584743 -940.82303188 289.89744749 -941.46802102 290.04063198 C-942.90610402 290.35630473 -944.34536476 290.66667494 -945.78592019 290.97086576 C-950.47725202 291.96939757 -955.13650418 293.05103904 -959.78560022 294.23190678 C-983.02016047 300.09415391 -1004.92397921 301.97224653 -1028.82905515 301.78928105 C-1033.70744245 301.76120139 -1038.58571207 301.78088585 -1043.4641313 301.79390097 C-1051.9721784 301.81031235 -1060.47977311 301.7976521 -1068.98776698 301.7647953 C-1081.63830997 301.71607798 -1094.28857387 301.71414887 -1106.93919358 301.72113121 C-1128.22982892 301.73159046 -1149.52026416 301.70511023 -1170.81084132 301.65699196 C-1191.86693131 301.60952648 -1212.92293781 301.57883842 -1233.97908092 301.57016945 C-1235.29218064 301.56961953 -1236.60528037 301.56906961 -1237.958171 301.56850303 C-1243.28884522 301.56633949 -1248.61951946 301.56430018 -1253.9501938 301.56247143 C-1268.84486351 301.55735912 -1283.73953131 301.54968632 -1298.6341989 301.54026985 C-1299.31214185 301.53984331 -1299.9900848 301.53941677 -1300.68857147 301.53897731 C-1333.59097901 301.51805271 -1366.49333219 301.46761196 -1399.39570117 301.41466713 C-1410.80007901 301.39633228 -1422.20445703 301.37812865 -1433.60883594 301.36046791 C-1434.31622761 301.35937232 -1435.02361928 301.35827672 -1435.75244706 301.35714793 C-1468.69563934 301.30630626 -1501.63884102 301.27656192 -1534.58206228 301.25218955 C-1536.72324883 301.25060506 -1538.86443537 301.24901151 -1541.0056219 301.24741612 C-1555.19650227 301.23685699 -1569.38738289 301.22665995 -1583.57826369 301.21670524 C-1611.80968143 301.1968981 -1640.0410974 301.17496486 -1668.27251238 301.15156886 C-1669.61667903 301.15045494 -1670.96084568 301.1493425 -1672.30501233 301.14823156 C-1761.58602032 301.07442328 -1850.86696644 300.94733488 -1940.14789844 300.8111515 C-1940.14789844 300.4811515 -1940.14789844 300.1511515 -1940.14789844 299.8111515 C-1939.09210338 299.70134453 -1939.09210338 299.70134453 -1938.01497912 299.58931923 C-1921.36591516 297.85030252 -1904.74506789 295.95376301 -1888.13444018 293.8792057 C-1881.94170337 293.1061187 -1875.74798157 292.34102382 -1869.55414844 291.5767765 C-1868.32151767 291.42465706 -1867.0888869 291.27253761 -1865.81890368 291.11580849 C-1853.87855811 289.64685886 -1841.92955542 288.25824179 -1829.97767138 286.88695717 C-1815.51845097 285.22619977 -1801.07486203 283.45741141 -1786.63984179 281.5977726 C-1777.43850599 280.42119648 -1768.22950368 279.38788212 -1759.00336719 278.42443275 C-1744.56220431 276.9065644 -1730.1672938 275.07685344 -1715.77033496 273.19472694 C-1708.94055447 272.30189851 -1702.10940301 271.41964353 -1695.27833819 270.53670502 C-1693.71160874 270.33417473 -1692.14489223 270.13154429 -1690.57818866 269.92881393 C-1674.04265375 267.78930205 -1657.50109816 265.69912664 -1640.95647693 263.63115501 C-1638.92440105 263.37696666 -1636.89240038 263.12218553 -1634.86042285 262.8672123 C-1611.25547635 259.90732887 -1611.25547635 259.90732887 -1600.60102344 258.77599525 C-1594.6100644 258.13685045 -1588.66433675 257.31820055 -1582.71039844 256.397089 C-1571.42331297 254.65100258 -1560.09687135 253.26556618 -1548.76090503 251.87865639 C-1531.1856953 249.72612333 -1513.61847064 247.53558583 -1496.08539844 245.0611515 C-1495.00106021 244.90821632 -1495.00106021 244.90821632 -1493.89481616 244.75219154 C-1490.51581901 244.27512051 -1487.13700579 243.79676542 -1483.75825 243.31798744 C-1472.79746294 241.77926727 -1461.82143642 240.35041494 -1450.82758594 239.068964 C-1437.13726024 237.48899656 -1437.13726024 237.48899656 -1423.52289844 235.3736515 C-1408.55081615 232.74169156 -1393.41454509 231.09590734 -1378.33393359 229.20861244 C-1373.31311301 228.57986882 -1368.29277183 227.94741364 -1363.27289844 227.3111515 C-1362.44166461 227.205821 -1361.61043078 227.10049049 -1360.75400805 226.99196815 C-1347.64830245 225.32443441 -1334.61185029 223.36626598 -1321.57807422 221.20470619 C-1314.00957886 219.97902661 -1306.39583084 219.08049491 -1298.78461719 218.16662025 C-1288.76770148 216.9547627 -1278.79073819 215.64573924 -1268.83539844 213.9986515 C-1257.48478545 212.12623464 -1246.1051319 210.51173483 -1234.71039844 208.9361515 C-1233.79272693 208.80912849 -1232.87505542 208.68210548 -1231.92957568 208.55123329 C-1228.16177653 208.02972681 -1224.39395599 207.50837553 -1220.62607837 206.98743629 C-1195.60242104 203.52425824 -1170.60223618 199.90655178 -1145.62348437 196.13366127 C-1132.32559707 194.12692845 -1119.0192171 192.18142845 -1105.71039844 190.2486515 C-1091.89270101 188.24087729 -1078.07730502 186.22107645 -1064.27289844 184.1236515 C-1063.60628192 184.02236946 -1062.9396654 183.92108742 -1062.25284839 183.81673622 C-1055.69533562 182.81923643 -1049.13947064 181.81147361 -1042.58539844 180.79162025 C-1040.48125349 180.46465755 -1038.37708707 180.13783293 -1036.27289844 179.8111515 C-1035.2517998 179.65235512 -1034.23070117 179.49355873 -1033.17866015 179.32995033 C-1026.96859669 178.37289703 -1020.75313326 177.46468318 -1014.53071094 176.5924015 C-1013.78368411 176.48760979 -1013.03665729 176.38281807 -1012.26699328 176.27485085 C-1011.51427646 176.16928368 -1010.76155963 176.06371651 -1009.9860332 175.95495033 C-997.75366277 174.23912249 -985.55063205 172.50934181 -973.42035937 170.1549015 C-967.68195887 169.04533268 -961.92947678 168.19401619 -956.14130664 167.38512611 C-948.21066567 166.26105812 -940.30682535 164.95210996 -932.39789844 163.6861515 C-930.47652677 163.3794979 -928.55513967 163.07294105 -926.63373828 162.76647377 C-920.47150964 161.78312732 -914.30965859 160.79742883 -908.14789844 159.8111515 C-907.10661792 159.64447975 -906.0653374 159.477808 -904.99250293 159.30608559 C-901.82293948 158.79870826 -898.65338605 158.29126837 -895.48383594 157.78380775 C-894.43527423 157.61593758 -893.38671252 157.4480674 -892.30637622 157.27511024 C-887.00365788 156.42613971 -881.70098542 155.57688455 -876.39838672 154.72716713 C-866.86874526 153.20082859 -857.33845744 151.67918179 -847.80414844 150.18224525 C-846.98602679 150.05367638 -846.16790515 149.9251075 -845.32499194 149.79264259 C-841.64344029 149.21433502 -837.96165928 148.63760926 -834.27924609 148.06481361 C-820.05179448 145.84117347 -805.85368447 143.43740823 -791.6507585 141.06336403 C-783.24233637 139.65856663 -774.83203774 138.26514729 -766.42169833 136.87188339 C-718.10068651 128.89056921 -718.10068651 128.89056921 -669.86005664 120.44103432 C-656.84296911 118.09112513 -643.80313958 115.90019875 -630.7516582 113.75023842 C-617.76036836 111.60811583 -604.79594792 109.35170981 -591.852 106.93956947 C-584.13010841 105.50669485 -576.39738263 104.18293953 -568.64789844 102.90880775 C-557.65891801 101.09665718 -546.71397522 99.09069594 -535.77356982 97.00722694 C-521.03938987 94.2030784 -506.29985909 91.44319459 -491.52289844 88.8736515 C-468.83760916 84.92435208 -446.20787266 80.66849402 -423.57160449 76.44902992 C-420.21860041 75.82432415 -416.86541036 75.20062692 -413.51215625 74.57726479 C-382.87042751 68.89731414 -382.87042751 68.89731414 -352.30219531 62.83751869 C-346.59499021 61.67151141 -340.88051835 60.57570691 -335.14638782 59.55184364 C-319.26625473 56.71425999 -303.45908485 53.5194135 -287.64515185 50.33806801 C-283.81496566 49.56794178 -279.98434575 48.7999796 -276.15375781 48.03185463 C-270.21849328 46.841394 -264.28333114 45.65042481 -258.34833789 44.45861244 C-257.29748492 44.24759581 -257.29748492 44.24759581 -256.22540259 44.03231621 C-251.82191222 43.14788472 -247.4188023 42.26157799 -243.01581836 41.37462807 C-231.78559898 39.11559989 -220.54711241 36.92514328 -209.28275561 34.84340858 C-195.61338021 32.30993339 -182.02581659 29.53982394 -168.45820117 26.50695229 C-157.71885465 24.11463377 -146.94173727 21.94271113 -136.14789844 19.8111515 C-125.51016473 17.70859239 -114.88233948 15.58440022 -104.29494834 13.23980904 C-101.68238903 12.66211346 -99.06872412 12.0908702 -96.45370841 11.52427864 C-90.2465369 10.17694 -84.05579549 8.80193814 -77.89107567 7.2710948 C-51.79133356 0.84115603 -26.79468732 -0.28648223 0 0 Z " fill="#6AAA76" transform="translate(2948.1478984355927,-0.8111515045166016)"/>
<path d="M0 0 C12.87 0 25.74 0 39 0 C39 0.33 39 0.66 39 1 C33.37848734 2.02579294 27.75516296 3.04072646 22.12988281 4.0456543 C20.21658533 4.38902924 18.30381649 4.73536356 16.39160156 5.0847168 C13.64261417 5.58641413 10.89190012 6.07743131 8.140625 6.56640625 C6.85916595 6.80382286 6.85916595 6.80382286 5.55181885 7.04603577 C4.35102692 7.25636696 4.35102692 7.25636696 3.12597656 7.47094727 C2.42426331 7.59752213 1.72255005 7.72409698 0.99957275 7.85450745 C-1.21421494 8.01558667 -2.88827624 7.64615728 -5 7 C-4.0409375 6.6596875 -4.0409375 6.6596875 -3.0625 6.3125 C-2.381875 5.879375 -1.70125 5.44625 -1 5 C-0.67 3.35 -0.34 1.7 0 0 Z " fill="#F1B96A" transform="translate(2529,0)"/>
<path d="M0 0 C1.07765625 0.19464844 2.1553125 0.38929687 3.265625 0.58984375 C4.08546875 0.74582031 4.9053125 0.90179688 5.75 1.0625 C5.75 0.4025 5.75 -0.2575 5.75 -0.9375 C8.72 -0.9375 11.69 -0.9375 14.75 -0.9375 C14.75 -0.2775 14.75 0.3825 14.75 1.0625 C16.703125 0.54166667 18.65625 0.02083333 20.609375 -0.5 C22.75 -0.9375 22.75 -0.9375 26.75 -0.9375 C26.75 -0.2775 26.75 0.3825 26.75 1.0625 C22.42750105 1.77967395 18.10417799 2.49158856 13.7800293 3.19873047 C12.31039298 3.4398136 10.84098771 3.6823098 9.37182617 3.92626953 C7.2549929 4.27752192 5.13736937 4.62361456 3.01953125 4.96875 C1.11071167 5.28295898 1.11071167 5.28295898 -0.83666992 5.60351562 C-3.70503911 5.98922009 -6.36438566 6.15892822 -9.25 6.0625 C-9.58 4.0825 -9.91 2.1025 -10.25 0.0625 C-6.59606463 -1.20573485 -3.75929974 -0.69465321 0 0 Z " fill="#F5B569" transform="translate(2130.25,65.9375)"/>
<path d="M0 0 C8.91 0 17.82 0 27 0 C24.30136934 1.79908711 22.5163484 2.57669227 19.47265625 3.47265625 C18.59802734 3.73240234 17.72339844 3.99214844 16.82226562 4.25976562 C15.91154297 4.52466797 15.00082031 4.78957031 14.0625 5.0625 C13.15564453 5.33126953 12.24878906 5.60003906 11.31445312 5.87695312 C7.55693718 6.985683 3.80691218 8.07261248 0 9 C0.185625 7.88625 0.37125 6.7725 0.5625 5.625 C1.31680657 2.17431139 1.31680657 2.17431139 0 0 Z " fill="#72B88A" transform="translate(3080,0)"/>
<path d="M0 0 C1.28132813 0.00902344 2.56265625 0.01804687 3.8828125 0.02734375 C4.87023438 0.03894531 5.85765625 0.05054687 6.875 0.0625 C6.545 1.3825 6.215 2.7025 5.875 4.0625 C0.595 4.7225 -4.685 5.3825 -10.125 6.0625 C-9.795 4.4125 -9.465 2.7625 -9.125 1.0625 C-6.12186252 -0.43906874 -3.33432478 -0.03031204 0 0 Z " fill="#F5B367" transform="translate(1962.125,89.9375)"/>
<path d="M0 0 C1.25425781 0.00902344 2.50851562 0.01804687 3.80078125 0.02734375 C4.75339844 0.03894531 5.70601562 0.05054688 6.6875 0.0625 C6.3575 1.0525 6.0275 2.0425 5.6875 3.0625 C2.7175 3.0625 -0.2525 3.0625 -3.3125 3.0625 C-3.3125 3.7225 -3.3125 4.3825 -3.3125 5.0625 C-5.9525 5.0625 -8.5925 5.0625 -11.3125 5.0625 C-11.6425 3.7425 -11.9725 2.4225 -12.3125 1.0625 C-8.15623632 0.05323521 -4.26884906 -0.03989579 0 0 Z " fill="#68A36D" transform="translate(1227.3125,273.9375)"/>
<path d="M0 0 C-7.88429752 6.0446281 -7.88429752 6.0446281 -12.125 5.875 C-13.07375 5.58625 -14.0225 5.2975 -15 5 C-17.33302989 4.96237049 -19.66713319 4.95334266 -22 5 C-22.33 4.34 -22.66 3.68 -23 3 C-19.54375231 2.30171869 -16.08474638 1.61821633 -12.625 0.9375 C-11.14773437 0.63875977 -11.14773437 0.63875977 -9.640625 0.33398438 C-8.69960937 0.15029297 -7.75859375 -0.03339844 -6.7890625 -0.22265625 C-5.91975098 -0.39547119 -5.05043945 -0.56828613 -4.15478516 -0.74633789 C-2 -1 -2 -1 0 0 Z " fill="#75B487" transform="translate(2546,73)"/>
<path d="M0 0 C-5.29955157 5.72556054 -5.29955157 5.72556054 -9.46875 6.3984375 C-11.67399586 6.37750162 -13.81173329 6.26795103 -16 6 C-16.33 4.68 -16.66 3.36 -17 2 C-14.91952703 1.4678559 -12.83547707 0.94968214 -10.75 0.4375 C-9.58984375 0.14746094 -8.4296875 -0.14257812 -7.234375 -0.44140625 C-4.27909017 -0.95179964 -2.75565899 -1.02996165 0 0 Z " fill="#6EB384" transform="translate(2791,25)"/>
<path d="M0 0 C3.93673644 1.31224548 6.22719294 2.91910327 9 6 C7.22978678 6.336611 5.45880326 6.66917293 3.6875 7 C2.20830078 7.2784375 2.20830078 7.2784375 0.69921875 7.5625 C-2 8 -2 8 -5 8 C-5 7.34 -5 6.68 -5 6 C-3.33333333 4.66666667 -1.66666667 3.33333333 0 2 C0 1.34 0 0.68 0 0 Z " fill="#F3B76B" transform="translate(2434,16)"/>
<path d="M0 0 C0.33 0.66 0.66 1.32 1 2 C2.051875 1.62875 3.10375 1.2575 4.1875 0.875 C8.18632214 -0.04276246 9.49128216 0.08615391 13 2 C13 2.66 13 3.32 13 4 C10.79317093 4.22370596 8.58440027 4.42830391 6.375 4.625 C4.53035156 4.79902344 4.53035156 4.79902344 2.6484375 4.9765625 C-1.05318114 5.00034163 -3.59017997 4.37441976 -7 3 C-7 2.67 -7 2.34 -7 2 C-4.69 2 -2.38 2 0 2 C0 1.34 0 0.68 0 0 Z " fill="#F8AE68" transform="translate(1443,154)"/>
<path d="M0 0 C-0.99 0.495 -0.99 0.495 -2 1 C-2.33 2.32 -2.66 3.64 -3 5 C-6.3 4.67 -9.6 4.34 -13 4 C-13 3.34 -13 2.68 -13 2 C-14.32 1.67 -15.64 1.34 -17 1 C-14.91835982 0.63601378 -12.83459438 0.28416713 -10.75 -0.0625 C-9.00976562 -0.35833984 -9.00976562 -0.35833984 -7.234375 -0.66015625 C-4.37477376 -0.9606216 -2.66674071 -0.9439206 0 0 Z " fill="#74B283" transform="translate(2281,121)"/>
<path d="M0 0 C1.32 0.66 2.64 1.32 4 2 C1.44165429 2.86881541 -1.12042461 3.7202133 -3.6875 4.5625 C-4.40873047 4.80935547 -5.12996094 5.05621094 -5.87304688 5.31054688 C-9.94352832 6.63020068 -12.78027933 7.38992772 -17 6 C-14.46637131 3.46637131 -12.44848651 2.92843868 -9 2 C-7 2 -5 2 -3 2 C-2.01 1.34 -1.02 0.68 0 0 Z " fill="#6FB687" transform="translate(3073,8)"/>
<path d="M0 0 C-3.26613695 1.91302307 -5.99445248 2.35674661 -9.75 2.625 C-10.73484375 2.69976562 -11.7196875 2.77453125 -12.734375 2.8515625 C-13.48203125 2.90054688 -14.2296875 2.94953125 -15 3 C-15.33 4.32 -15.66 5.64 -16 7 C-18.31 6.67 -20.62 6.34 -23 6 C-19.72914099 1.96983443 -16.43331294 1.03526349 -11.5 0.1875 C-10.50419922 -0.01262695 -10.50419922 -0.01262695 -9.48828125 -0.21679688 C-6.06482935 -0.85570457 -3.30440126 -1.23915047 0 0 Z " fill="#70B282" transform="translate(2632,57)"/>
<path d="M0 0 C3.3 0.33 6.6 0.66 10 1 C10 1.66 10 2.32 10 3 C10.66 3.66 11.32 4.32 12 5 C8.37 5.33 4.74 5.66 1 6 C0 3 0 3 0 0 Z " fill="#F7B269" transform="translate(1640,130)"/>
<path d="M0 0 C-0.61875 0.0825 -1.2375 0.165 -1.875 0.25 C-4.17972859 0.79394438 -4.17972859 0.79394438 -5.0625 3 C-5.371875 3.66 -5.68125 4.32 -6 5 C-6.99 5.33 -7.98 5.66 -9 6 C-9.66 5.67 -10.32 5.34 -11 5 C-11 4.01 -11 3.02 -11 2 C-12.32 1.67 -13.64 1.34 -15 1 C-13.25215171 0.63536268 -11.50159498 0.2836922 -9.75 -0.0625 C-8.28820313 -0.35833984 -8.28820313 -0.35833984 -6.796875 -0.66015625 C-4.131881 -0.98397535 -2.51128277 -0.85503199 0 0 Z " fill="#76B385" transform="translate(2233,129)"/>
<path d="M0 0 C1.32 0.33 2.64 0.66 4 1 C4 1.66 4 2.32 4 3 C6.3431213 2.74438677 8.67843403 2.40729228 11 2 C11.33 1.34 11.66 0.68 12 0 C12 1.65 12 3.3 12 5 C7.8803623 6.29243536 4.33168317 7.26252625 0 7 C0.66 6.01 1.32 5.02 2 4 C2 3.34 2 2.68 2 2 C1.34 1.34 0.68 0.68 0 0 Z " fill="#F3B568" transform="translate(2181,56)"/>
<path d="M0 0 C3.3 0 6.6 0 10 0 C10 0.66 10 1.32 10 2 C10.66 2.33 11.32 2.66 12 3 C11 4 11 4 8.49609375 4.09765625 C6.98208984 4.08025391 6.98208984 4.08025391 5.4375 4.0625 C4.42558594 4.05347656 3.41367188 4.04445313 2.37109375 4.03515625 C1.58863281 4.02355469 0.80617188 4.01195312 0 4 C0 2.68 0 1.36 0 0 Z " fill="#65A36C" transform="translate(1342,259)"/>
<path d="M0 0 C1.9375 0.375 1.9375 0.375 4 1 C4.33 1.66 4.66 2.32 5 3 C7.01669827 4.13350534 7.01669827 4.13350534 9 5 C7.58461283 5.33872513 6.16762037 5.67074624 4.75 6 C3.96109375 6.185625 3.1721875 6.37125 2.359375 6.5625 C0 7 0 7 -4 7 C-4.33 6.01 -4.66 5.02 -5 4 C-3.35 4 -1.7 4 0 4 C0 2.68 0 1.36 0 0 Z " fill="#F3B467" transform="translate(2069,73)"/>
<path d="M0 0 C0.33 0.99 0.66 1.98 1 3 C-4.28 4.32 -9.56 5.64 -15 7 C-14.01 6.01 -13.02 5.02 -12 4 C-11.67 3.34 -11.34 2.68 -11 2 C-7.24079436 0.06669424 -4.19075475 -0.19491883 0 0 Z " fill="#75B98D" transform="translate(3045,17)"/>
<path d="M0 0 C0.99 -0.33 1.98 -0.66 3 -1 C3.99 -0.34 4.98 0.32 6 1 C3.60533136 1.36447158 1.2098929 1.7168294 -1.1875 2.0625 C-1.86103516 2.16626953 -2.53457031 2.27003906 -3.22851562 2.37695312 C-7.04775554 2.91723584 -10.3027803 3.21848107 -14 2 C-14.33 1.34 -14.66 0.68 -15 0 C-9.70283799 -0.76514562 -5.30167779 -1.00984339 0 0 Z " fill="#F7B56D" transform="translate(1918,99)"/>
<path d="M0 0 C0.66 0.33 1.32 0.66 2 1 C1.67 2.32 1.34 3.64 1 5 C-1.64 5.33 -4.28 5.66 -7 6 C-7.99 4.68 -8.98 3.36 -10 2 C-8.906875 1.855625 -7.81375 1.71125 -6.6875 1.5625 C-3.06877013 1.11711896 -3.06877013 1.11711896 0 0 Z " fill="#F2B364" transform="translate(2240,49)"/>
<path d="M0 0 C5.75 -0.125 5.75 -0.125 8 1 C8 1.66 8 2.32 8 3 C8.99 3.33 9.98 3.66 11 4 C11 4.33 11 4.66 11 5 C6.545 5.495 6.545 5.495 2 6 C2 5.01 2 4.02 2 3 C1.34 2.67 0.68 2.34 0 2 C0 1.34 0 0.68 0 0 Z " fill="#F3B666" transform="translate(2480,9)"/>
<path d="M0 0 C1.19109375 0.14695312 1.19109375 0.14695312 2.40625 0.296875 C3.59734375 0.42835938 3.59734375 0.42835938 4.8125 0.5625 C6.90625 1.046875 6.90625 1.046875 8.90625 3.046875 C7.25625 3.376875 5.60625 3.706875 3.90625 4.046875 C3.57625 3.386875 3.24625 2.726875 2.90625 2.046875 C1.91625 1.716875 0.92625 1.386875 -0.09375 1.046875 C0.23625 2.036875 0.56625 3.026875 0.90625 4.046875 C-0.09375 5.046875 -0.09375 5.046875 -2.65625 5.109375 C-3.8628125 5.0784375 -3.8628125 5.0784375 -5.09375 5.046875 C-5.42375 4.386875 -5.75375 3.726875 -6.09375 3.046875 C-5.43375 2.716875 -4.77375 2.386875 -4.09375 2.046875 C-2.09375 0.046875 -2.09375 0.046875 0 0 Z " fill="#66A06A" transform="translate(1092.09375,289.953125)"/>
<path d="M0 0 C-1.485 1.485 -1.485 1.485 -3 3 C-3.99 2.67 -4.98 2.34 -6 2 C-6 2.66 -6 3.32 -6 4 C-5.34 4.33 -4.68 4.66 -4 5 C-5.32 5.33 -6.64 5.66 -8 6 C-8 4.68 -8 3.36 -8 2 C-9.98 2 -11.96 2 -14 2 C-14 1.67 -14 1.34 -14 1 C-12.41913952 0.63495397 -10.83516093 0.28339494 -9.25 -0.0625 C-8.36828125 -0.25972656 -7.4865625 -0.45695312 -6.578125 -0.66015625 C-4.01320972 -0.99825872 -2.42908361 -0.81158635 0 0 Z " fill="#7CB98F" transform="translate(2752,33)"/>
<path d="M0 0 C5.94 0.99 5.94 0.99 12 2 C8.99895182 3.50052409 6.90648893 4.38848592 3.75 5.125 C2.5125 5.41375 1.275 5.7025 0 6 C0 4.02 0 2.04 0 0 Z " fill="#73B487" transform="translate(2752,98)"/>
<path d="M0 0 C0.33 0.66 0.66 1.32 1 2 C1.86625 1.835 2.7325 1.67 3.625 1.5 C6.81225199 1.02781452 9.78485027 0.92344882 13 1 C13 1.33 13 1.66 13 2 C10.37569876 2.6695256 7.75063343 3.33573718 5.125 4 C4.37863281 4.19078125 3.63226562 4.3815625 2.86328125 4.578125 C-2.7734375 6 -2.7734375 6 -5 6 C-5 5.34 -5 4.68 -5 4 C-3.68 3.67 -2.36 3.34 -1 3 C-1.33 2.34 -1.66 1.68 -2 1 C-1.34 0.67 -0.68 0.34 0 0 Z " fill="#7AB78D" transform="translate(2792,88)"/>
<path d="M0 0 C0 0.66 0 1.32 0 2 C-4.29 2.99 -8.58 3.98 -13 5 C-13 4.34 -13 3.68 -13 3 C-8.70614007 -0.4887612 -5.28129105 -0.26854022 0 0 Z " fill="#7AB082" transform="translate(2138,257)"/>
<path d="M0 0 C3.63 0.33 7.26 0.66 11 1 C8.37548383 3.62451617 6.5122172 3.5832868 2.875 4.125 C1.77929688 4.29257813 0.68359375 4.46015625 -0.4453125 4.6328125 C-1.70988281 4.81457031 -1.70988281 4.81457031 -3 5 C-3 4.34 -3 3.68 -3 3 C-2.34 3 -1.68 3 -1 3 C-0.67 2.01 -0.34 1.02 0 0 Z " fill="#75B286" transform="translate(2547,154)"/>
<path d="M0 0 C1.53202706 0.25195908 3.05257128 0.57596777 4.5625 0.9375 C5.38878906 1.13214844 6.21507813 1.32679687 7.06640625 1.52734375 C8.02353516 1.76130859 8.02353516 1.76130859 9 2 C9 2.33 9 2.66 9 3 C4.38 3.33 -0.24 3.66 -5 4 C-5 3.34 -5 2.68 -5 2 C-5.66 1.67 -6.32 1.34 -7 1 C-5.5459375 1.0309375 -5.5459375 1.0309375 -4.0625 1.0625 C-1.12534105 1.35618499 -1.12534105 1.35618499 0 0 Z " fill="#F3B96D" transform="translate(2407,24)"/>
<path d="M0 0 C3.73658685 0.42300983 7.37653234 0.98542905 11 2 C8.60236815 4.39763185 7.66726502 4.34280586 4.375 4.625 C3.55773438 4.69976562 2.74046875 4.77453125 1.8984375 4.8515625 C1.27195312 4.90054688 0.64546875 4.94953125 0 5 C0.33 4.01 0.66 3.02 1 2 C0.34 1.67 -0.32 1.34 -1 1 C-0.67 0.67 -0.34 0.34 0 0 Z " fill="#F3B467" transform="translate(2299,40)"/>
<path d="M0 0 C1.18851563 0.00902344 2.37703125 0.01804687 3.6015625 0.02734375 C4.51679687 0.03894531 5.43203125 0.05054688 6.375 0.0625 C6.375 0.7225 6.375 1.3825 6.375 2.0625 C4.25131556 2.28384176 2.12595976 2.48920007 0 2.6875 C-1.18335938 2.80351562 -2.36671875 2.91953125 -3.5859375 3.0390625 C-4.58882812 3.04679687 -5.59171875 3.05453125 -6.625 3.0625 C-7.285 2.4025 -7.945 1.7425 -8.625 1.0625 C-5.74084117 -0.37957941 -3.20778472 -0.03144887 0 0 Z " fill="#66A168" transform="translate(1070.625,292.9375)"/>
<path d="M0 0 C3.3 0 6.6 0 10 0 C10 0.66 10 1.32 10 2 C6.7 2.66 3.4 3.32 0 4 C0 2.68 0 1.36 0 0 Z " fill="#F3B465" transform="translate(2248,49)"/>
<path d="M0 0 C-3.01490557 2.00993705 -5.2149927 2.72623341 -8.6875 3.625 C-9.68136719 3.88539062 -10.67523437 4.14578125 -11.69921875 4.4140625 C-12.45847656 4.60742188 -13.21773437 4.80078125 -14 5 C-13.01 3.68 -12.02 2.36 -11 1 C-10.34 1.33 -9.68 1.66 -9 2 C-9 1.34 -9 0.68 -9 0 C-5.93109813 -1.53445094 -3.29905734 -0.54984289 0 0 Z " fill="#76B98D" transform="translate(2991,35)"/>
<path d="M0 0 C2.0625 0.4375 2.0625 0.4375 4 1 C0.68983906 2.84790538 -2.57173491 3.74541487 -6.25 4.625 C-7.32765625 4.88539063 -8.4053125 5.14578125 -9.515625 5.4140625 C-10.33546875 5.60742188 -11.1553125 5.80078125 -12 6 C-12.33 5.01 -12.66 4.02 -13 3 C-12.14535156 2.86722656 -11.29070313 2.73445312 -10.41015625 2.59765625 C-9.30542969 2.42105469 -8.20070313 2.24445313 -7.0625 2.0625 C-5.96035156 1.88847656 -4.85820312 1.71445313 -3.72265625 1.53515625 C-1.09573071 1.28154864 -1.09573071 1.28154864 0 0 Z " fill="#75B287" transform="translate(2585,146)"/>
<path d="M0 0 C1.5778125 0.2475 1.5778125 0.2475 3.1875 0.5 C6.20468796 0.89569678 8.97093972 1.09178971 12 1 C7.13371581 3.62030687 2.5814298 5.3283194 -3 5 C-2.01 4.67 -1.02 4.34 0 4 C0 2.68 0 1.36 0 0 Z " fill="#74B589" transform="translate(2734,104)"/>
<path d="M0 0 C0 0.33 0 0.66 0 1 C-4.95 1.33 -9.9 1.66 -15 2 C-15 1.67 -15 1.34 -15 1 C-13.35 1 -11.7 1 -10 1 C-10 0.34 -10 -0.32 -10 -1 C-5.92224809 -1.9267618 -3.57818963 -2.33958553 0 0 Z " fill="#F8B167" transform="translate(1676,131)"/>
<path d="M0 0 C-0.99 0.66 -1.98 1.32 -3 2 C-3 2.66 -3 3.32 -3 4 C-6.14624993 4.26218749 -7.61837017 4.24754367 -10.3125 2.5 C-10.869375 2.005 -11.42625 1.51 -12 1 C-3.96428571 -1.27678571 -3.96428571 -1.27678571 0 0 Z " fill="#7ABA8F" transform="translate(2820,19)"/>
<path d="M0 0 C-0.66 1.32 -1.32 2.64 -2 4 C-5.3 3.34 -8.6 2.68 -12 2 C-12 1.67 -12 1.34 -12 1 C-7.95858806 0.36605303 -4.0934693 -0.12404452 0 0 Z " fill="#7BB487" transform="translate(2089,152)"/>
<path d="M0 0 C-3.4766338 2.14336161 -6.21229195 2.21277626 -10.25 2.125 C-11.32765625 2.10695313 -12.4053125 2.08890625 -13.515625 2.0703125 C-14.33546875 2.04710938 -15.1553125 2.02390625 -16 2 C-16 1.67 -16 1.34 -16 1 C-14.0852312 0.63571223 -12.16807707 0.28394694 -10.25 -0.0625 C-9.18265625 -0.25972656 -8.1153125 -0.45695312 -7.015625 -0.66015625 C-4.25228095 -0.97156937 -2.59053383 -0.8991416 0 0 Z " fill="#81BA93" transform="translate(2304,117)"/>
<path d="M0 0 C-6.5 4 -6.5 4 -11 4 C-10.67 2.68 -10.34 1.36 -10 0 C-6.33694766 -0.74926071 -3.57644848 -1.2380014 0 0 Z " fill="#73B383" transform="translate(2407,99)"/>
<path d="M0 0 C-0.33 1.32 -0.66 2.64 -1 4 C-2.98 4 -4.96 4 -7 4 C-7 3.34 -7 2.68 -7 2 C-8.32 1.67 -9.64 1.34 -11 1 C-7.26513121 0.4254048 -3.78706732 0 0 0 Z " fill="#79B78A" transform="translate(2489,83)"/>
<path d="M0 0 C-1.0625 1.5 -1.0625 1.5 -3 3 C-6.5 3.125 -6.5 3.125 -10 3 C-10.99 3.33 -11.98 3.66 -13 4 C-15.1875 3.0625 -15.1875 3.0625 -17 2 C-5.47835991 -0.29612756 -5.47835991 -0.29612756 0 0 Z " fill="#80B88E" transform="translate(2187,136)"/>
<path d="M0 0 C0.99 0.33 1.98 0.66 3 1 C3.6875 3.0625 3.6875 3.0625 4 5 C2.02 5.33 0.04 5.66 -2 6 C-2.33 5.01 -2.66 4.02 -3 3 C-2.01 2.01 -1.02 1.02 0 0 Z " fill="#71B183" transform="translate(2727,105)"/>
<path d="M0 0 C-0.66 0 -1.32 0 -2 0 C-2.33 0.99 -2.66 1.98 -3 3 C-6.3 3 -9.6 3 -13 3 C-12.67 2.34 -12.34 1.68 -12 1 C-4.35711773 -1.38056989 -4.35711773 -1.38056989 0 0 Z " fill="#7BBA91" transform="translate(2896,3)"/>
<path d="M0 0 C2.5625 0.75 2.5625 0.75 6.5625 2.75 C0.6225 3.245 0.6225 3.245 -5.4375 3.75 C-5.4375 3.09 -5.4375 2.43 -5.4375 1.75 C-2.4375 -0.25 -2.4375 -0.25 0 0 Z " fill="#F9B671" transform="translate(1597.4375,138.25)"/>
<path d="M0 0 C-2 2 -2 2 -4.8203125 2.1953125 C-5.91085938 2.17210938 -7.00140625 2.14890625 -8.125 2.125 C-9.22070312 2.10695313 -10.31640625 2.08890625 -11.4453125 2.0703125 C-12.28835937 2.04710938 -13.13140625 2.02390625 -14 2 C-9.39809749 -0.42988387 -5.08896931 -1.7615663 0 0 Z " fill="#7CB991" transform="translate(2590,65)"/>
<path d="M0 0 C1.35158203 0.15275391 1.35158203 0.15275391 2.73046875 0.30859375 C3.41753906 0.39238281 4.10460938 0.47617187 4.8125 0.5625 C4.8125 1.2225 4.8125 1.8825 4.8125 2.5625 C1.5125 2.8925 -1.7875 3.2225 -5.1875 3.5625 C-5.1875 2.9025 -5.1875 2.2425 -5.1875 1.5625 C-6.1775 1.2325 -7.1675 0.9025 -8.1875 0.5625 C-4.98734144 -0.50421952 -3.30205706 -0.38595472 0 0 Z " fill="#F2BA70" transform="translate(2453.1875,17.4375)"/>
<path d="M0 0 C0.33 0.66 0.66 1.32 1 2 C-1.64 2.66 -4.28 3.32 -7 4 C-7 3.34 -7 2.68 -7 2 C-8.98 2 -10.96 2 -13 2 C-13 1.67 -13 1.34 -13 1 C-8.62426048 0.40667939 -4.42471556 -0.13827236 0 0 Z " fill="#7FB386" transform="translate(1706,210)"/>
<path d="M0 0 C-3.68734758 2.45823172 -6.69699971 3.01242616 -11 4 C-10.67 2.68 -10.34 1.36 -10 0 C-6.30458414 -0.95024979 -3.69541586 -0.95024979 0 0 Z " fill="#75B387" transform="translate(2716,113)"/>
<path d="M0 0 C2.9375 0.4375 2.9375 0.4375 4.9375 2.4375 C-0.5075 3.9225 -0.5075 3.9225 -6.0625 5.4375 C-3.86402672 0.55200382 -3.86402672 0.55200382 0 0 Z " fill="#76B78C" transform="translate(3006.0625,27.5625)"/>
<path d="M0 0 C0.66 0 1.32 0 2 0 C2 0.66 2 1.32 2 2 C3.32 1.67 4.64 1.34 6 1 C6 2.65 6 4.3 6 6 C4.35 6.33 2.7 6.66 1 7 C0.67 4.69 0.34 2.38 0 0 Z " fill="#F4B564" transform="translate(2386,24)"/>
<path d="M0 0 C1.051875 -0.02126953 1.051875 -0.02126953 2.125 -0.04296875 C4 0.1875 4 0.1875 6 2.1875 C5.05125 2.14625 4.1025 2.105 3.125 2.0625 C-0.10244856 1.83776182 -0.10244856 1.83776182 -2 4.1875 C-4.125 3.8125 -4.125 3.8125 -6 3.1875 C-6 2.5275 -6 1.8675 -6 1.1875 C-3.77109005 0.07304502 -2.46944894 0.02269714 0 0 Z " fill="#65A46D" transform="translate(1282,266.8125)"/>
<path d="M0 0 C-1.32 1.32 -2.64 2.64 -4 4 C-4.99 3.67 -5.98 3.34 -7 3 C-6.67 2.34 -6.34 1.68 -6 1 C-6.99 0.67 -7.98 0.34 -9 0 C-5.62182575 -0.84454356 -3.32534757 -1.10844919 0 0 Z " fill="#7CBB91" transform="translate(2830,17)"/>
<path d="M0 0 C1.32 0.66 2.64 1.32 4 2 C-0.95 3.485 -0.95 3.485 -6 5 C-6.66 4.34 -7.32 3.68 -8 3 C-4.25 1.875 -4.25 1.875 -2 3 C-2 2.34 -2 1.68 -2 1 C-1.34 0.67 -0.68 0.34 0 0 Z " fill="#7CB98E" transform="translate(2824,81)"/>
<path d="M0 0 C2.64 0 5.28 0 8 0 C8 0.99 8 1.98 8 3 C5.36 3 2.72 3 0 3 C0 2.01 0 1.02 0 0 Z " fill="#F4B266" transform="translate(2088,73)"/>
<path d="M0 0 C6.15234375 0.5859375 6.15234375 0.5859375 8 1 C8.33 1.66 8.66 2.32 9 3 C6.36 3.66 3.72 4.32 1 5 C0.67 3.35 0.34 1.7 0 0 Z " fill="#75B78C" transform="translate(2931,48)"/>
<path d="M0 0 C-0.66 0 -1.32 0 -2 0 C-2 0.99 -2 1.98 -2 3 C-7.75 2.25 -7.75 2.25 -10 0 C-6.33694766 -0.74926071 -3.57644848 -1.2380014 0 0 Z " fill="#74B388" transform="translate(2362,107)"/>
<path d="M0 0 C-3.4766338 2.14336161 -6.21229195 2.21277626 -10.25 2.125 C-11.32765625 2.10695312 -12.4053125 2.08890625 -13.515625 2.0703125 C-14.33546875 2.04710937 -15.1553125 2.02390625 -16 2 C-16 1.67 -16 1.34 -16 1 C-14.0852312 0.63571223 -12.16807707 0.28394694 -10.25 -0.0625 C-9.18265625 -0.25972656 -8.1153125 -0.45695312 -7.015625 -0.66015625 C-4.25228095 -0.97156937 -2.59053383 -0.8991416 0 0 Z " fill="#80BA92" transform="translate(2632,57)"/>
<path d="M0 0 C-3.44450737 2.29633824 -5.93812283 2.54016485 -10 3 C-10 2.34 -10 1.68 -10 1 C-6.21812119 -0.83691257 -4.05431692 -1.15837626 0 0 Z " fill="#74B68B" transform="translate(2971,41)"/>
<path d="M0 0 C0 0.66 0 1.32 0 2 C-2.64 2.33 -5.28 2.66 -8 3 C-8 2.01 -8 1.02 -8 0 C-4.94736336 -0.98120464 -3.05263664 -0.98120464 0 0 Z " fill="#F5B96F" transform="translate(2504,10)"/>
<path d="M0 0 C-0.33 0.99 -0.66 1.98 -1 3 C-4.3 2.67 -7.6 2.34 -11 2 C-11 1.67 -11 1.34 -11 1 C-7.27569643 0.30710631 -3.78916254 -0.11144596 0 0 Z " fill="#7AB88E" transform="translate(2669,49)"/>
<path d="M0 0 C-3.31371 2.20914 -4.3446021 2.22481553 -8.1875 2.125 C-9.08855469 2.10695313 -9.98960937 2.08890625 -10.91796875 2.0703125 C-11.60503906 2.04710937 -12.29210938 2.02390625 -13 2 C-13 1.67 -13 1.34 -13 1 C-11.58622218 0.63447197 -10.16879424 0.28304505 -8.75 -0.0625 C-7.96109375 -0.25972656 -7.1721875 -0.45695313 -6.359375 -0.66015625 C-3.89605178 -1.01497267 -2.34395868 -0.76877544 0 0 Z " fill="#81BE97" transform="translate(2863,10)"/>
<path d="M0 0 C0.33 0.66 0.66 1.32 1 2 C4.465 1.505 4.465 1.505 8 1 C4.96474514 3.02350324 3.80573798 3.32124018 0.3125 3.625 C-0.49574219 3.69976562 -1.30398437 3.77453125 -2.13671875 3.8515625 C-2.75160156 3.90054688 -3.36648437 3.94953125 -4 4 C-2.68 2.68 -1.36 1.36 0 0 Z " fill="#80BA92" transform="translate(2768,96)"/>
<path d="M0 0 C1.32 0.66 2.64 1.32 4 2 C-1.445 3.485 -1.445 3.485 -7 5 C-7 4.34 -7 3.68 -7 3 C-3.75 1.375 -3.75 1.375 0 0 Z " fill="#77B98F" transform="translate(3073,8)"/>
<path d="M0 0 C3.3 0 6.6 0 10 0 C6.09567131 1.95216435 3.27786748 2.50639991 -1 3 C-0.67 2.01 -0.34 1.02 0 0 Z " fill="#8AB992" transform="translate(2086,268)"/>
<path d="M0 0 C-4.1205746 1.99785435 -7.45194365 2.17835515 -12 2 C-7.89783794 -0.73477471 -4.73617773 -1.57872591 0 0 Z " fill="#8AC19D" transform="translate(2791,25)"/>
</svg>
