<svg xmlns="http://www.w3.org/2000/svg" xmlns:xlink="http://www.w3.org/1999/xlink" width="996" height="96" viewBox="0 0 996 96">
  <defs>
    <clipPath id="clip-path">
      <path id="Path_1320" data-name="Path 1320" d="M696.9,194.327H1153.4C608.133,146.119,244.656,77.936,11.143,7.215,165.06,68.068,386.526,131.8,696.9,194.327" transform="translate(-11.143 -7.215)" fill="none"/>
    </clipPath>
    <linearGradient id="linear-gradient" x1="0.067" y1="0.161" x2="0.707" y2="1" gradientUnits="objectBoundingBox">
      <stop offset="0" stop-color="#279855"/>
      <stop offset="1" stop-color="#156b15"/>
    </linearGradient>
    <clipPath id="clip-path-2">
      <path id="Path_1321" data-name="Path 1321" d="M1282,208.315V114.222c-21.867.176-44.807.711-66.249.757C616.974,116.66,229.851,65.826,0,0,217.544,84.68,615.681,165.942,1282,208.315" fill="none"/>
    </clipPath>
    <linearGradient id="linear-gradient-2" x1="0.112" y1="0.195" x2="1" y2="0.799" gradientUnits="objectBoundingBox">
      <stop offset="0" stop-color="#dfa724"/>
      <stop offset="1" stop-color="#ff6f00"/>
    </linearGradient>
    <clipPath id="clip-Artboard_6">
      <rect width="996" height="96"/>
    </clipPath>
  </defs>
  <g id="Artboard_6" data-name="Artboard – 6" clip-path="url(#clip-Artboard_6)">
    <g id="Group_1483" data-name="Group 1483" transform="translate(-286 -117.666)" opacity="0.66">
      <g id="Group_1352" data-name="Group 1352" transform="translate(110.51 56.221)">
        <g id="Group_1351" data-name="Group 1351" clip-path="url(#clip-path)">
          <path id="Path_1322" data-name="Path 1322" d="M0,0H1142.253V187.112H0Z" transform="translate(0 0.003)" fill="url(#linear-gradient)"/>
        </g>
      </g>
      <g id="Group_1354" data-name="Group 1354">
        <g id="Group_1353" data-name="Group 1353" clip-path="url(#clip-path-2)">
          <rect id="Rectangle_1238" data-name="Rectangle 1238" width="1282" height="208.315" transform="translate(0 0.003)" fill="url(#linear-gradient-2)"/>
        </g>
      </g>
    </g>
  </g>
</svg>
